<svg width="178" height="48" viewBox="0 0 178 48" fill="none" xmlns="http://www.w3.org/2000/svg">
<g clip-path="url(#clip0_11677_12897)">
<path fill-rule="evenodd" clip-rule="evenodd" d="M164.368 8C156.842 8 150.741 14.2337 150.741 21.9234H177.995C177.995 14.2337 171.894 8 164.368 8Z" fill="#FFDA00"/>
<path fill-rule="evenodd" clip-rule="evenodd" d="M164.368 35.8469C156.842 35.8469 150.741 29.6132 150.741 21.9235H177.995C177.995 29.6132 171.894 35.8469 164.368 35.8469Z" fill="#2071B5"/>
<path fill-rule="evenodd" clip-rule="evenodd" d="M41.759 14.3971H29.1074V17.802H33.613V30.287H37.6859V17.802H41.759V14.3971Z" fill="#4E4B48"/>
<path fill-rule="evenodd" clip-rule="evenodd" d="M43.1777 14.3971V17.802H47.2509V30.287H51.3237V17.802H55.8293V14.3971H43.1777Z" fill="#4E4B48"/>
<path fill-rule="evenodd" clip-rule="evenodd" d="M86.8284 30.2871V14.3972H82.9406V23.9057L76.0099 14.3972H72.1221V30.2871H76.0099V20.8935L82.9406 30.2871H86.8284Z" fill="#4E4B48"/>
<path fill-rule="evenodd" clip-rule="evenodd" d="M57.8037 30.2871H61.8768H69.3031V26.8821H61.8768V23.7549H68.1715V20.3499H61.8768V17.8022H69.3031V14.3972H57.8037V30.2871Z" fill="#4E4B48"/>
<path fill-rule="evenodd" clip-rule="evenodd" d="M89.9268 30.2871H93.9999V23.8556H100.575V20.4504H93.9999V17.8022H101.796V14.3972H89.9268V30.2871Z" fill="#4E4B48"/>
<path fill-rule="evenodd" clip-rule="evenodd" d="M12.8311 14.3971L8.40195 25.5686H8.36701L3.93812 14.3971H0L6.37984 30.287H10.3894L16.7692 14.3971H12.8311Z" fill="#4E4B48"/>
<path fill-rule="evenodd" clip-rule="evenodd" d="M131.719 30.2871H142.965V26.7596H135.792V14.3972H131.719V30.2871Z" fill="#4E4B48"/>
<path fill-rule="evenodd" clip-rule="evenodd" d="M118.716 30.2871H129.962V26.7596H122.789V14.3972H118.716V30.2871Z" fill="#4E4B48"/>
<path fill-rule="evenodd" clip-rule="evenodd" d="M106.772 24.2155L108.9 18.7883H108.927L111.063 24.2149L106.772 24.2155ZM113.453 30.2871H117.391L110.908 14.3972H110.857H106.97H106.919L100.437 30.2871H104.375L105.491 27.4496H112.336L113.453 30.2871Z" fill="#4E4B48"/>
<path fill-rule="evenodd" clip-rule="evenodd" d="M20.4784 24.2155L22.6064 18.7883H22.6333L24.769 24.2149L20.4784 24.2155ZM27.159 30.2871H31.0968L24.6142 14.3972H24.5634H20.676H20.6255L14.1426 30.2871H18.0807L19.1975 27.4496H26.0422L27.159 30.2871Z" fill="#4E4B48"/>
</g>
<defs>
<clipPath id="clip0_11677_12897">
<rect width="178" height="28" fill="white" transform="translate(0 8)"/>
</clipPath>
</defs>
</svg>
