<svg width="39" height="48" viewBox="0 0 39 48" fill="none" xmlns="http://www.w3.org/2000/svg">
<g clip-path="url(#clip0_11677_12068)">
<path fill-rule="evenodd" clip-rule="evenodd" d="M37.0332 47.2857C37.8221 47.2857 38.4608 46.6508 38.4608 45.8652V17.3318C38.4608 16.5476 37.8221 15.9113 37.0332 15.9113H2.01685C1.22798 15.9113 0.587891 16.5476 0.587891 17.3318V45.8652C0.587891 46.6508 1.22798 47.2857 2.01685 47.2857H37.0332Z" fill="#FFD41F"/>
<path d="M23.2074 4.85515C23.2074 4.69608 23.0081 4.46026 22.8494 4.37933C21.8949 3.82677 20.9376 4.53842 19.9831 4.53842C19.6238 4.53842 19.2658 4.61792 18.9879 4.41978C18.9879 4.26071 19.1479 4.22024 19.1479 4.06396C18.9107 4.06396 18.6286 3.9844 18.3534 3.94533C18.3534 3.94533 17.7555 3.90629 17.3961 3.78769C16.0823 3.23513 14.8513 2.95467 13.3395 3.66769C12.8608 3.86583 12.385 4.06396 11.867 4.06396C11.6284 4.06396 12.2249 4.5384 12.1463 4.77561C11.3505 4.89561 10.6346 5.1314 9.95801 5.76489V5.80398C10.4339 6.3984 11.1511 6.47653 11.867 6.47653C12.1056 6.47653 12.5436 7.03049 13.6567 7.18817C15.2878 7.50352 16.2437 6.59375 17.3961 7.06817C17.3175 6.87143 17.3175 6.75278 17.3175 6.59371C18.6721 6.95232 19.7445 6.91044 20.7804 6.39835C21.7349 6.15835 22.1729 4.81468 23.2074 4.85515Z" fill="#CD1041"/>
<path d="M19.705 11.1833C19.5688 11.0005 19.6236 10.7074 19.472 10.8568C19.1659 11.1609 19.2235 11.62 19.2614 12.0163C19.2783 12.2088 19.1281 12.1893 19.0677 12.1293C18.721 11.8028 18.5904 11.5391 18.4318 11.1037C18.0346 11.2209 17.9911 11.514 17.9757 11.8335C17.9616 12.1056 18.1932 12.527 17.9532 12.4866C17.5166 12.4098 17.3173 11.6968 17.278 11.1833C17.1208 11.1833 17.0043 11.2781 16.826 11.6019C16.7067 11.8391 16.6407 12.2117 16.2842 12.1712C15.9262 12.1321 15.8097 11.6298 15.7704 11.2196C15.7564 11.0061 15.5375 11.2168 15.4588 11.2963C15.2848 11.4693 14.9998 11.8572 14.8117 12.1712C14.5324 11.8558 14.5324 11.3828 14.4931 10.8275L14.4538 10.8246C14.0159 11.0242 13.4993 12.4488 12.862 12.4488C12.782 12.4488 12.7553 12.3694 12.782 12.3303C13.0852 11.8838 13.0669 11.3786 13.0276 10.8246C13.0164 10.6432 12.928 10.3279 12.8002 10.4535C12.8002 10.4535 12.2781 11.0381 12.0661 11.2209C11.8738 11.387 11.5088 11.6968 11.1523 11.7749C11.1523 11.4596 11.7882 10.7075 11.4302 9.52281C11.1523 9.83816 11.033 10.0949 10.2006 10.3335C9.72058 10.4521 9.35281 10.3753 8.99627 10.2149C8.9682 10.5679 8.88538 11.0088 8.56674 11.3074C8.56674 11.3074 7.46765 10.7451 7.14901 10.7856C6.86968 10.8246 6.45838 11.9354 6.25765 12.6066C5.78321 12.6233 5.18808 12.1698 5.08842 11.6814C4.70802 12.6819 4.73606 13.8916 4.96346 15.0804C5.55582 18.1865 6.60998 20.2405 7.20795 23.793C7.43675 25.1647 5.93623 26.073 5.37757 27.2005C6.01484 27.2005 6.5693 27.2312 7.28377 27.2047C7.46204 27.1963 7.73152 27.0051 7.78206 26.7846C7.93506 26.126 7.96876 25.3391 8.20738 24.6679C8.88256 24.5493 9.08048 23.7568 9.67845 23.4024C9.72056 23.1638 9.36121 23.1247 9.32051 22.8484C9.51983 22.6516 9.79916 22.4116 9.99708 22.1354C10.0771 21.8982 9.67845 21.8577 9.67845 21.6609C9.67845 21.4642 9.74865 21.3763 9.83147 21.2577C9.98868 21.0316 10.3999 21.001 10.1964 20.6926C10.0055 20.4023 9.63913 20.5153 9.43981 20.2767C9.55912 19.8804 9.91848 19.4075 10.2764 19.2498C9.99708 18.894 9.51984 18.7335 9.08049 18.7725V17.9451C9.08049 17.8349 9.2012 17.9061 9.2012 17.9061C9.75706 18.1823 10.1571 18.3777 10.7144 18.6177C10.6723 19.0921 10.8323 19.5275 10.9123 19.9614C10.9909 20.6326 11.4443 21.0609 11.3516 21.8172C11.2871 22.3209 10.7579 22.5483 10.4407 22.8023C10.3073 22.9097 10.0771 23.006 10.0771 23.2446C10.4336 23.7177 11.0246 24.0916 11.4625 24.4865C11.7924 24.0861 11.9468 23.44 12.2247 23.006C12.5041 22.9293 12.7427 22.8889 12.942 22.7703C13.1007 22.6907 13.2607 22.6907 13.4179 22.6112C13.3 22.2163 12.9013 22.0181 12.6248 21.7809C12.782 21.6218 13.0276 21.6317 13.2607 21.5828C13.3898 21.5535 13.5386 21.5046 13.6186 21.3442C13.3393 21.2633 13.0206 21.068 12.9799 20.7498C13.2999 20.5154 13.8179 20.2391 13.9372 19.7228C13.7772 19.5275 13.4993 19.5274 13.2999 19.4074C13.2606 19.1298 13.3729 18.8117 13.4333 18.5661C13.4642 18.4363 13.5582 18.3051 13.6761 18.3051C14.5127 18.4614 15.3943 18.4168 16.1887 18.301C16.1887 18.301 16.5341 18.2298 16.4737 18.541C16.2351 19.5693 15.8855 20.5154 15.7269 21.5828C15.369 22.0182 14.8918 22.2163 14.5324 22.5303C14.2559 22.7703 13.8965 22.8079 13.7772 23.2042L15.3704 24.4809C15.6567 24.1446 15.9262 23.56 16.1256 23.1637C16.2028 23.0061 16.1256 22.7703 16.2842 22.6112C16.6407 22.6517 17.0001 22.5302 17.3173 22.4926C17.358 22.1353 17.0408 21.9777 16.8808 21.7C17.1601 21.6219 17.5166 21.6888 17.7567 21.5479C17.9083 21.4572 18.1146 21.2633 18.1146 21.0679H17.8339C17.7567 21.0679 17.6359 21.0679 17.6767 20.9507C18.1525 20.8307 18.6719 20.7498 18.9891 20.3173C18.9105 20.3173 18.8291 20.2767 18.7912 20.2C18.8235 20.0898 18.9891 20.0409 18.9891 20.0409C19.3063 19.9209 19.5871 19.5651 19.5871 19.2498C19.3063 19.2498 18.9498 19.1689 18.8698 18.894C19.0298 18.6177 19.3484 18.4559 19.6671 18.4168C20.1036 19.4075 20.7002 20.3172 21.374 21.1865C21.4147 21.2633 21.4554 21.3846 21.4147 21.5046L19.9029 23.3228C19.8243 23.4024 19.8243 23.56 19.9436 23.56L22.0926 23.4818C22.2456 23.4623 22.372 23.4023 22.4099 23.2837C22.4506 22.6907 22.4506 22.0963 22.5292 21.5046C22.8492 21.2632 23.0878 20.7498 23.5258 20.7498C23.4837 20.5154 23.2479 20.4749 23.0879 20.3173C23.0472 19.9991 23.3251 19.84 23.4837 19.6056C23.2858 19.487 23.0079 19.7632 22.8085 19.6446C23.0079 19.4869 23.1664 19.4074 23.3251 19.0516C23.3658 18.9539 23.2858 18.9735 23.2858 18.9735C23.0879 19.0517 22.9138 18.9916 22.7692 18.9344C22.5797 18.8423 22.4099 18.6958 22.4099 18.4977C22.5292 18.1028 22.8534 17.7916 23.1314 17.514C23.2436 17.4107 23.3573 17.3632 23.4093 17.4818C23.5314 17.8 23.603 18.0637 23.8024 18.3414C23.8431 18.5368 23.843 18.7726 23.9609 18.9344C24.4775 19.2498 24.9562 19.6823 25.3927 20.2391C25.592 20.5949 25.9121 20.8712 25.8321 21.3037L24.5575 23.2042C24.5042 23.2837 24.5266 23.3744 24.5266 23.3744C24.5407 23.4344 24.6137 23.5349 24.7007 23.5139L26.7066 23.0466L26.8062 22.9977L26.8287 22.9293L26.7473 21.4642C26.9466 21.227 27.2652 21.1056 27.5024 20.8712C27.4238 20.7498 27.3452 20.7121 27.2652 20.6325C27.2652 20.3939 27.5025 20.3172 27.6625 20.2C27.5811 19.9614 27.2259 19.9991 27.1445 19.7228C27.4631 19.5275 27.7032 19.2498 27.7425 18.8535C27.6246 18.7726 27.3537 18.8465 27.1951 18.8521C27.0435 18.8563 26.4146 18.7809 26.2167 18.5758C26.0651 18.4181 26.0314 18.0637 25.9921 17.747C25.9921 17.747 25.9963 17.6437 26.0721 17.6674C27.581 18.1418 29.1363 18.5367 30.686 18.8158C30.686 18.8158 30.8938 18.8479 30.9654 18.9735C31.6012 20.0814 32.2385 21.0888 32.9221 22.1758C33.0821 22.4312 33.1944 22.6656 33.2505 22.8847C32.8926 23.5195 32.341 23.9256 31.823 24.5214C31.6265 24.7866 31.8819 25.0084 32.0377 24.9833L33.9482 24.6679C33.9482 24.6679 34.0815 24.6539 34.1096 24.506C34.1503 24.0358 34.3061 23.6005 34.2275 23.1246C34.3861 22.8484 34.7834 22.8484 34.9448 22.5707C34.7834 22.3726 34.6121 22.2079 34.3131 22.0447C33.8331 21.7837 33.725 21.2633 33.6225 20.9367C33.3642 20.1247 34.1096 20.3577 34.1096 19.84C33.9482 19.6446 33.791 19.487 33.5917 19.3307C33.5917 19.0516 33.8303 18.9735 34.0689 18.894C34.0198 18.7433 33.9103 18.6344 33.791 18.5744C33.631 18.4977 33.3937 18.4558 33.2323 18.3414C33.1537 18.1433 33.8303 17.9856 33.7489 17.3911C33.5509 17.5098 33.2323 17.4317 33.0344 17.3521C32.7944 17.154 33.1916 16.9558 33.0737 16.7605C32.5964 16.6 32.1192 16.3642 31.6812 16.1256C31.371 15.9595 31.2278 15.4712 31.0847 15.1363C30.526 13.7521 30.0895 12.3693 29.0956 11.1833C28.857 10.907 28.777 10.8651 28.4584 10.6279C28.3559 10.5498 28.3952 10.3795 28.61 10.2065C28.8093 10.0488 29.0128 9.79768 29.0956 9.59954C29.5336 8.73024 29.4915 7.46466 29.0128 6.63442C28.4583 5.60466 27.6625 5.25023 26.7066 5.25023C25.2369 5.25023 24.281 6.43628 23.7644 7.6628C23.1272 9.20466 23.3251 9.96791 22.2934 10.7186C22.1263 10.8247 21.7024 10.914 21.374 10.5498C21.2167 10.3531 21.0174 10.0349 21.1367 9.75863C21.2574 9.83816 21.3782 10.0502 21.527 10.1563C21.687 10.2749 21.8961 10.2791 22.0534 10.194C22.2681 10.0754 22.3748 9.83956 22.3748 9.60235C22.3748 9.31351 22.2134 9.06232 22.014 8.8879C21.6954 8.61301 21.176 8.65212 20.8181 8.85026C20.3423 9.08607 20.0629 9.59958 20.1429 10.194C20.1822 10.5903 20.404 10.8651 20.564 11.26C20.6076 11.3688 20.5612 11.4833 20.3816 11.5C20.1036 11.5195 19.8945 11.4303 19.705 11.1833ZM9.04258 5.1316L10.1178 4.53859C10.3157 4.57766 10.3157 4.77446 10.4336 4.89586C10.7144 4.81493 10.5936 4.41864 10.7537 4.2205C10.9123 4.2205 10.9123 4.45908 11.0316 4.57768C11.3095 4.57768 11.2295 4.14372 11.3516 3.94559C11.5088 3.70838 11.9468 3.78795 11.8682 3.39167L11.4696 1.6112C11.4218 1.40051 11.3067 1.30283 11.2295 1.33493C9.79919 1.84842 8.68323 2.36328 7.33008 2.83631C7.21217 2.87677 7.09285 2.87676 6.89353 2.87676L4.7052 1.25538C4.82451 2.20422 4.94381 3.07626 5.02382 3.63022C5.06312 3.74743 5.02381 3.78794 4.9438 3.78794C4.50585 3.78794 4.10861 4.14371 3.83068 4.53859C3.51204 5.21115 3.11481 5.76514 2.47754 6.04142C2.59685 6.31909 2.83406 6.47677 3.07409 6.55352C3.27341 6.63445 3.47277 6.594 3.67209 6.7126C3.67209 6.79214 3.63137 6.83396 3.59066 6.9107C3.0741 7.82047 3.86999 9.04698 2.87618 9.71954C3.31413 9.91628 3.83068 9.71951 4.18862 9.32463L4.26723 9.36372C3.9907 9.99581 3.86998 10.72 3.90928 11.4205C3.90928 11.4205 3.94019 11.5851 3.87 11.7902C3.87 11.7902 3.79562 12.0191 3.7507 12.1321C5.02805 11.9242 5.50809 10.2986 5.60495 10.0196L5.64988 9.9833L5.66111 10.0349C5.66111 10.0349 5.29194 11.2251 5.66111 11.7358C5.74392 11.8502 5.88571 11.9647 6.02608 11.9507C6.17627 11.3828 6.49627 10.6669 7.01283 10.2735C7.49008 10.3111 7.96878 10.5498 8.44603 10.7465C8.72536 10.0754 8.20738 9.12653 8.20738 9.12653L8.21158 9.10694L8.24671 9.12653C8.24671 9.12653 8.64394 9.55907 8.84467 9.71954C9.08049 9.87721 9.79915 10.0349 10.1964 9.79772C10.3368 9.71539 10.5544 9.52279 10.5937 9.36372C9.32052 9.44325 9.2391 7.86097 8.64394 7.10888L8.68322 7.06834C9.00326 7.22741 9.1633 7.66276 9.47913 7.82044C9.47913 7.82044 11.1495 8.16375 11.2183 8.1777C11.3362 8.20143 11.3811 8.01862 11.3811 8.01862C11.3965 7.9628 11.558 7.33488 11.4696 7.0307C11.2716 6.9107 11.1916 7.22743 11.0316 7.22743C10.5936 7.10883 10.3157 7.06835 9.83845 6.87161L9.04258 5.28932C8.98362 5.16932 9.04258 5.1316 9.04258 5.1316ZM23.0359 11.1525L23.0879 11.1037C24.0031 10.1549 24.5196 8.57253 24.9155 7.82044C25.3927 6.95253 25.8714 6.55346 26.5872 6.51579C27.1852 6.47672 27.9797 6.99028 28.2197 7.5847C28.4583 8.09819 28.2997 8.76931 28.0204 9.16698C27.7032 9.64001 27.1066 9.7586 26.5872 9.63999C26.27 9.55906 25.9921 9.36374 25.7535 9.12653C25.3927 9.68048 24.9154 10.3112 24.3596 10.667C23.9609 10.9461 23.4837 11.2209 23.0471 11.2209L23.0359 11.1525ZM8.40671 4.10186C8.40671 4.37954 8.20738 4.57768 7.92804 4.57768C7.68801 4.57768 7.49012 4.37954 7.49012 4.10186C7.49012 3.82698 7.68801 3.63022 7.92804 3.63022C8.20738 3.63022 8.40671 3.82698 8.40671 4.10186Z" fill="#231F20"/>
<path d="M5.79794 41.7257C5.85128 38.741 7.58483 36.4918 10.3964 36.4918C12.4697 36.4918 13.7568 37.5773 14.0305 39.4359C14.2397 40.8578 13.987 41.7256 12.3307 41.7201L6.50959 41.9922C6.63592 45.9801 9.25382 47.3155 12.4598 47.2848H14.491L14.4769 46.3694H12.5076C9.54999 46.2801 7.88519 45.0243 7.78974 42.7805L13.1883 42.5001C14.3295 42.4554 15.1577 41.9392 15.1591 40.5076C15.1619 37.9638 13.7554 35.5625 10.4245 35.5652C7.37988 35.5694 4.75781 37.728 4.75781 41.7718C4.75781 44.0448 5.50173 46.1071 7.04017 47.2848H8.81444C6.86753 46.428 5.74741 44.5066 5.79794 41.7257Z" fill="#231F20"/>
<path d="M19.0088 39.0965V47.2857H20.2384V39.5024C20.9066 38.7099 22.1039 38.1085 23.0205 38.1085C24.1154 38.1085 24.6586 38.5132 24.6629 39.8709L24.6699 47.2857H25.8518V39.7188C25.8518 38.0834 25.084 37.1206 23.1132 37.1206C21.9369 37.1206 20.6595 37.7486 19.0088 39.0965Z" fill="#231F20"/>
<path d="M18.289 38.7617C19.9286 37.358 21.5779 36.4663 23.2735 36.4663C25.4212 36.4663 26.6143 37.5254 26.5722 39.7189V47.2845H27.7485V39.712C27.8144 37.2729 26.5652 35.5845 23.4841 35.5845C21.627 35.5845 19.3502 36.472 17.1113 38.4701L17.1142 47.2845H18.289V38.7617Z" fill="#231F20"/>
<path d="M31.7608 36.9779L32.5427 36.7965V47.2853H33.667L33.6544 35.9384C33.6544 35.6063 33.4621 35.4416 33.0775 35.5463L30.6337 36.2105L30.6309 47.2853H31.7608V36.9779Z" fill="#231F20"/>
<path d="M32.1489 32.9525C33.022 32.9525 33.7295 32.2492 33.7295 31.3813C33.7295 30.512 33.022 29.8087 32.1489 29.8087C31.2744 29.8087 30.5684 30.512 30.5684 31.3813C30.5684 32.2492 31.2744 32.9525 32.1489 32.9525Z" fill="#231F20"/>
<path d="M13.3214 39.5383C13.094 37.9923 12.1213 37.116 10.3961 37.116C8.27376 37.116 6.83219 38.7904 6.55566 41.3662L12.1746 41.0969C13.2526 41.0453 13.4899 40.6909 13.3214 39.5383ZM12.315 39.629C12.3094 39.9485 12.1381 40.2123 11.5219 40.243L7.84986 40.4342C7.96215 39.2104 8.87595 38.1067 10.2824 38.1067C11.8462 38.1067 12.3009 39.0039 12.315 39.629Z" fill="#231F20"/>
</g>
<defs>
<clipPath id="clip0_11677_12068">
<rect width="39" height="48" fill="white"/>
</clipPath>
</defs>
</svg>
