<svg width="76" height="48" viewBox="0 0 76 48" fill="none" xmlns="http://www.w3.org/2000/svg">
<g clip-path="url(#clip0_11677_12704)">
<mask id="mask0_11677_12704" style="mask-type:luminance" maskUnits="userSpaceOnUse" x="0" y="3" width="76" height="45">
<path d="M0 47.961V3H75.7219V47.961H0Z" fill="white"/>
</mask>
<g mask="url(#mask0_11677_12704)">
<path d="M2.62286 38.1V36.3857H3.94768C4.2478 36.3857 4.49393 36.4667 4.67141 36.6159C4.84932 36.7646 4.94475 36.9819 4.94475 37.2532C4.94475 37.4975 4.84932 37.7006 4.67141 37.863C4.49393 38.0259 4.24823 38.1005 3.93386 38.1005L2.62286 38.1ZM2.62286 34.4332V32.9829H3.75682C3.9887 32.9829 4.19382 33.0502 4.35834 33.186C4.52157 33.3215 4.60405 33.4976 4.60405 33.7007C4.60405 33.918 4.522 34.0942 4.35791 34.2296C4.19382 34.3655 3.9887 34.4332 3.75682 34.4332H2.62286ZM0 30.8002V40.2763H4.2072C4.82168 40.2763 5.35455 40.2086 5.79198 40.0595C6.22898 39.9099 6.58393 39.7072 6.85727 39.4359C7.12651 39.1705 7.33607 38.8515 7.47218 38.4999C7.60924 38.1454 7.67865 37.7687 7.67686 37.389C7.67686 37.1717 7.63584 36.9545 7.56761 36.7243C7.49662 36.4929 7.39078 36.2734 7.25368 36.0733C7.11895 35.8723 6.95294 35.6938 6.76184 35.5445C6.57538 35.3969 6.36187 35.2866 6.13311 35.2196V35.2059C6.27114 35.1436 6.39633 35.0564 6.50232 34.9487C6.62495 34.8266 6.73464 34.6907 6.84345 34.5279C6.9527 34.3655 7.03475 34.1893 7.10298 33.9853C7.1691 33.7844 7.20149 33.574 7.19884 33.3626C7.20076 33.0221 7.13105 32.6849 6.99416 32.3726C6.85548 32.0612 6.65023 31.7835 6.39264 31.5587C6.11931 31.3194 5.80463 31.1311 5.4638 31.0029C5.10884 30.8675 4.71243 30.8002 4.27543 30.8002H4.30307H0Z" fill="#084763"/>
</g>
<mask id="mask1_11677_12704" style="mask-type:luminance" maskUnits="userSpaceOnUse" x="0" y="3" width="76" height="45">
<path d="M0 47.961V3H75.7219V47.961H0Z" fill="white"/>
</mask>
<g mask="url(#mask1_11677_12704)">
<path d="M11.1336 36.4937C11.2341 36.7647 11.3873 37.0134 11.5844 37.2257C11.7757 37.4297 12.0076 37.5921 12.2814 37.7001C12.5543 37.8086 12.8687 37.863 13.2098 37.863C13.5518 37.863 13.8662 37.8086 14.1391 37.7001C14.4039 37.5954 14.6419 37.4333 14.8356 37.2257C15.0332 37.0162 15.1824 36.7664 15.2726 36.4937C15.3676 36.2096 15.4229 35.8839 15.4229 35.5311C15.4229 34.8261 15.232 34.257 14.8356 33.8233C14.4396 33.3896 13.8934 33.1723 13.1964 33.1723C12.4999 33.1723 11.9528 33.3896 11.5568 33.8233C11.1613 34.257 10.9695 34.8261 10.9695 35.5311C10.9695 35.8839 11.0248 36.2096 11.1336 36.4937ZM8.19727 35.5586C8.19727 34.8399 8.33372 34.176 8.59281 33.5657C8.8519 32.9554 9.20772 32.4266 9.65854 31.9929C10.1161 31.5562 10.654 31.2109 11.2429 30.9759C11.844 30.732 12.4861 30.6103 13.1692 30.6103C13.8519 30.6103 14.494 30.732 15.0951 30.9759C15.6962 31.2201 16.2287 31.5587 16.6799 31.9924C17.1382 32.435 17.5007 32.9656 17.7452 33.552C18.0047 34.1619 18.1416 34.8261 18.1416 35.5449C18.1416 36.2636 18.0185 36.9283 17.7586 37.5377C17.5142 38.1239 17.1517 38.6543 16.6933 39.0964C16.2359 39.5336 15.6978 39.8791 15.1085 40.1139C14.5079 40.344 13.8657 40.4661 13.1826 40.4661C12.4999 40.4661 11.8578 40.344 11.2567 40.1139C10.6716 39.8786 10.138 39.5331 9.68531 39.0964C9.23493 38.6627 8.8627 38.1411 8.62045 37.524C8.19295 36.4363 8.19727 35.5586 8.19727 35.5586Z" fill="#084763"/>
</g>
<mask id="mask2_11677_12704" style="mask-type:luminance" maskUnits="userSpaceOnUse" x="0" y="3" width="76" height="45">
<path d="M0 47.961V3H75.7219V47.961H0Z" fill="white"/>
</mask>
<g mask="url(#mask2_11677_12704)">
<path d="M21.9665 33.213H23.4554C23.6195 33.213 23.7559 33.24 23.8656 33.3082C23.9749 33.3759 24.0565 33.4573 24.1113 33.552C24.1653 33.6463 24.2063 33.7415 24.234 33.8507C24.2616 33.9587 24.275 34.0535 24.275 34.1349C24.275 34.2292 24.262 34.3247 24.234 34.4336C24.2079 34.5406 24.1616 34.6416 24.0975 34.7315C24.0315 34.8284 23.9424 34.9077 23.838 34.962C23.7287 35.016 23.5918 35.0417 23.4416 35.0417H21.9665V33.213ZM27.4169 40.3029L25.3537 36.8867C25.887 36.6292 26.2967 36.2627 26.583 35.8025C26.8702 35.3409 27.0071 34.7992 27.0071 34.161C27.0071 33.6596 26.9112 33.2126 26.7337 32.8059C26.5602 32.4021 26.2935 32.0445 25.9552 31.7619C25.6136 31.4769 25.2038 31.2467 24.7115 31.0839C24.2206 30.921 23.6739 30.8396 23.0594 30.8396H19.3164V40.3166H21.9388V37.3612H22.7999L24.4797 40.3033L27.4169 40.3029Z" fill="#084763"/>
</g>
<mask id="mask3_11677_12704" style="mask-type:luminance" maskUnits="userSpaceOnUse" x="0" y="3" width="76" height="45">
<path d="M0 47.961V3H75.7219V47.961H0Z" fill="white"/>
</mask>
<g mask="url(#mask3_11677_12704)">
<path d="M31.147 37.8497V33.2126H32.7452C33.0314 33.2126 33.3048 33.267 33.5786 33.3754C33.8515 33.4838 34.0838 33.6471 34.2885 33.8507C34.4986 34.0607 34.6656 34.3091 34.7803 34.5823C34.9029 34.8668 34.9582 35.1921 34.9582 35.5586C34.9582 35.9246 34.89 36.2498 34.7665 36.5348C34.6434 36.819 34.4798 37.0633 34.2747 37.2536C34.0712 37.4459 33.8294 37.5937 33.5647 37.6873C33.2883 37.7848 32.9971 37.8351 32.7037 37.836L32.7175 37.8497H31.147ZM28.5107 30.7731V40.263H32.7037C33.3873 40.263 34.0294 40.1541 34.6305 39.9373C35.2307 39.7204 35.7636 39.4088 36.2144 39.0021C36.671 38.5898 37.0342 38.086 37.2801 37.524C37.5396 36.9411 37.6627 36.2901 37.6627 35.5718C37.6627 34.8536 37.5262 34.203 37.2663 33.6197C37.0174 33.0517 36.655 32.5396 36.201 32.1146C35.7506 31.6946 35.2251 31.383 34.6305 31.1383C33.7418 30.774 32.7313 30.7731 32.7313 30.7731H28.5107Z" fill="#084763"/>
</g>
<mask id="mask4_11677_12704" style="mask-type:luminance" maskUnits="userSpaceOnUse" x="0" y="3" width="76" height="45">
<path d="M0 47.961V3H75.7219V47.961H0Z" fill="white"/>
</mask>
<g mask="url(#mask4_11677_12704)">
<path d="M46.0507 37.8497V40.2763H38.8652V30.786H45.9686V33.213H41.4885V34.3924H44.972V36.6699H41.4885V37.8497H46.0507Z" fill="#084763"/>
</g>
<mask id="mask5_11677_12704" style="mask-type:luminance" maskUnits="userSpaceOnUse" x="0" y="3" width="76" height="45">
<path d="M0 47.961V3H75.7219V47.961H0Z" fill="white"/>
</mask>
<g mask="url(#mask5_11677_12704)">
<path d="M50.8624 36.792L51.7913 33.945L52.7612 36.792H50.8624ZM53.9361 40.2763H56.7637L53.0345 30.7864H50.5343L46.8193 40.2767H49.6331L50.0567 39.0566H53.5125L53.9361 40.2763Z" fill="#084763"/>
</g>
<mask id="mask6_11677_12704" style="mask-type:luminance" maskUnits="userSpaceOnUse" x="0" y="3" width="76" height="45">
<path d="M0 47.961V3H75.7219V47.961H0Z" fill="white"/>
</mask>
<g mask="url(#mask6_11677_12704)">
<path d="M65.7906 30.7864V35.9786C65.7906 36.6973 65.6813 37.3346 65.4766 37.89C65.2715 38.4463 64.9714 38.9207 64.5888 39.3C64.2036 39.6826 63.7367 39.9744 63.2225 40.1537C62.6631 40.3373 62.0772 40.4292 61.4879 40.4259C60.8458 40.4259 60.2585 40.3303 59.7257 40.1537C59.2116 39.9747 58.7449 39.6829 58.3603 39.3C57.9772 38.9207 57.6767 38.4463 57.4716 37.89C57.2669 37.3346 57.1572 36.6973 57.1572 35.9786V30.7864H59.7801V35.9109C59.7801 36.6699 59.9308 37.212 60.2171 37.5373C60.5042 37.863 60.9274 38.0259 61.4741 38.0259C62.0204 38.0259 62.444 37.863 62.7311 37.5373C63.0179 37.212 63.1681 36.6699 63.1681 35.9109V30.7864H65.7906Z" fill="#084763"/>
</g>
<mask id="mask7_11677_12704" style="mask-type:luminance" maskUnits="userSpaceOnUse" x="0" y="3" width="76" height="45">
<path d="M0 47.961V3H75.7219V47.961H0Z" fill="white"/>
</mask>
<g mask="url(#mask7_11677_12704)">
<path d="M71.1054 37.6869L69.5479 40.2767H66.4336L69.5073 35.4767L66.5286 30.7997H69.6848L71.0778 33.3489L72.4847 30.7864H75.627L72.6621 35.4643L75.722 40.2772H72.6082L71.1054 37.6869Z" fill="#084763"/>
</g>
<mask id="mask8_11677_12704" style="mask-type:luminance" maskUnits="userSpaceOnUse" x="0" y="3" width="76" height="45">
<path d="M0 47.961V3H75.7219V47.961H0Z" fill="white"/>
</mask>
<g mask="url(#mask8_11677_12704)">
<path d="M21.9529 23.7171L21.9935 29.2354H19.7537V28.6521H19.7399C19.5896 28.8017 19.4117 28.9234 19.207 29.019C19.0093 29.1133 18.8037 29.1904 18.5925 29.2491C18.3878 29.3168 18.1823 29.3571 17.9781 29.3846C17.7877 29.4105 17.5959 29.4241 17.4037 29.4253C16.7452 29.4275 16.0921 29.3077 15.4778 29.0721C14.8929 28.8373 14.3593 28.4921 13.9069 28.0556C13.4561 27.6218 13.1015 27.0934 12.8416 26.4831C12.5825 25.8733 12.459 25.209 12.459 24.4903C12.459 23.7716 12.5959 23.1077 12.855 22.4974C13.1145 21.8876 13.4699 21.3587 13.9207 20.9246C14.3782 20.4879 14.9163 20.1428 15.5055 19.9084C16.1061 19.6641 16.7482 19.542 17.4314 19.542C17.8818 19.542 18.3192 19.596 18.7424 19.7048C19.1664 19.8133 19.5628 19.9753 19.9312 20.1926C20.3004 20.4099 20.6415 20.6811 20.9554 20.9927C21.2707 21.3047 21.5289 21.657 21.7478 22.05L19.0706 22.7413C18.8659 22.5381 18.6063 22.3753 18.2924 22.2536C18.0057 22.1391 17.6998 22.0793 17.3908 22.0774C17.0354 22.0774 16.7215 22.1314 16.4481 22.2531C16.1819 22.3679 15.9442 22.539 15.7516 22.7546C15.5607 22.9722 15.4164 23.226 15.3276 23.5007C15.2268 23.8025 15.1761 24.1184 15.1773 24.4363C15.1773 24.8019 15.2321 25.1413 15.3552 25.4391C15.4783 25.7379 15.6415 25.9954 15.8475 26.199C16.0564 26.4072 16.3077 26.5688 16.5846 26.673C16.8717 26.7814 17.1857 26.8358 17.5268 26.8358C17.8416 26.8358 18.1141 26.8084 18.333 26.7544C18.5343 26.7047 18.7274 26.627 18.9069 26.5238C19.0701 26.4291 19.207 26.3203 19.3171 26.199C19.4259 26.0764 19.5218 25.9414 19.5896 25.7918H18.4436V23.7176L21.9529 23.7171Z" fill="#084763"/>
</g>
<mask id="mask9_11677_12704" style="mask-type:luminance" maskUnits="userSpaceOnUse" x="0" y="3" width="76" height="45">
<path d="M0 47.961V3H75.7219V47.961H0Z" fill="white"/>
</mask>
<g mask="url(#mask9_11677_12704)">
<path d="M26.5031 25.752L27.4319 22.9045L28.4018 25.752H26.5031ZM29.5768 29.2363H32.4043L28.6751 19.7464H26.1749L22.46 29.2363H25.2737L25.6973 28.0161H29.1531L29.5768 29.2363Z" fill="#084763"/>
</g>
<mask id="mask10_11677_12704" style="mask-type:luminance" maskUnits="userSpaceOnUse" x="0" y="3" width="76" height="45">
<path d="M0 47.961V3H75.7219V47.961H0Z" fill="white"/>
</mask>
<g mask="url(#mask10_11677_12704)">
<path d="M41.0373 22.1584L36.4475 26.8427H41.0377V29.235H32.8682V26.8093L37.6765 22.1584L37.6626 22.1447H33.0051V19.7186H41.0373V22.1584Z" fill="#084763"/>
</g>
<mask id="mask11_11677_12704" style="mask-type:luminance" maskUnits="userSpaceOnUse" x="0" y="3" width="76" height="45">
<path d="M0 47.961V3H75.7219V47.961H0Z" fill="white"/>
</mask>
<g mask="url(#mask11_11677_12704)">
<path d="M48.3599 26.7814V22.1443H49.958C50.2443 22.1443 50.5177 22.1991 50.7915 22.3076C51.0584 22.4158 51.3001 22.5774 51.5014 22.7824C51.7115 22.9924 51.8785 23.2408 51.9932 23.514C52.1158 23.799 52.1711 24.1247 52.1711 24.4903C52.1711 24.8563 52.1029 25.182 51.9794 25.4666C51.8572 25.7511 51.6927 25.995 51.4875 26.1853C51.281 26.3736 51.04 26.5208 50.7776 26.619C50.3208 26.7956 49.9304 26.7818 49.9304 26.7818L48.3599 26.7814ZM45.7236 19.7048V29.1951H49.9166C50.6002 29.1951 51.2423 29.0863 51.8434 28.8694C52.4436 28.6526 52.9764 28.3406 53.4277 27.9338C53.8842 27.5217 54.2474 27.018 54.493 26.4561C54.7525 25.8733 54.8756 25.2218 54.8756 24.5036C54.8756 23.7853 54.7391 23.1347 54.4796 22.5514C54.2304 21.9837 53.8679 21.4719 53.4139 21.0471C52.9635 20.6267 52.425 20.3447 51.8434 20.0708C51.0501 19.6976 49.9442 19.7048 49.9442 19.7048H45.7236Z" fill="#084763"/>
</g>
<mask id="mask12_11677_12704" style="mask-type:luminance" maskUnits="userSpaceOnUse" x="0" y="3" width="76" height="45">
<path d="M0 47.961V3H75.7219V47.961H0Z" fill="white"/>
</mask>
<g mask="url(#mask12_11677_12704)">
<path d="M63.039 26.7814V29.208H55.8535V19.7186H62.9569V22.1443H58.4768V23.3246H61.9599V25.6024H58.4768V26.7814H63.039Z" fill="#084763"/>
</g>
<mask id="mask13_11677_12704" style="mask-type:luminance" maskUnits="userSpaceOnUse" x="0" y="3" width="76" height="45">
<path d="M0 47.961V3H75.7219V47.961H0Z" fill="white"/>
</mask>
<g mask="url(#mask13_11677_12704)">
<path d="M37.9513 15.3206C37.174 14.6944 36.6523 13.5446 36.6523 12.231C36.6523 10.9178 37.1735 9.76842 37.9513 9.14227C38.7285 9.76799 39.251 10.9178 39.251 12.231C39.251 13.5446 38.7285 14.694 37.9513 15.3206Z" fill="#1E6685"/>
</g>
<mask id="mask14_11677_12704" style="mask-type:luminance" maskUnits="userSpaceOnUse" x="0" y="3" width="76" height="45">
<path d="M0 47.961V3H75.7219V47.961H0Z" fill="white"/>
</mask>
<g mask="url(#mask14_11677_12704)">
<path d="M38.1904 3C39.0692 3.66 39.8123 4.54029 40.3603 5.57357H62.8637V3H38.1904Z" fill="#00A5C6"/>
</g>
<mask id="mask15_11677_12704" style="mask-type:luminance" maskUnits="userSpaceOnUse" x="0" y="3" width="76" height="45">
<path d="M0 47.961V3H75.7219V47.961H0Z" fill="white"/>
</mask>
<g mask="url(#mask15_11677_12704)">
<path d="M37.7115 3H13.04V5.57357H35.5429C36.0905 4.53986 36.8328 3.66 37.7115 3Z" fill="#00A5C6"/>
</g>
<mask id="mask16_11677_12704" style="mask-type:luminance" maskUnits="userSpaceOnUse" x="0" y="3" width="76" height="45">
<path d="M0 47.961V3H75.7219V47.961H0Z" fill="white"/>
</mask>
<g mask="url(#mask16_11677_12704)">
<path d="M35.0507 6.67627H13.04V9.24941H34.5256C34.5756 8.37117 34.7524 7.5046 35.0507 6.67627Z" fill="#0095AE"/>
</g>
<mask id="mask17_11677_12704" style="mask-type:luminance" maskUnits="userSpaceOnUse" x="0" y="3" width="76" height="45">
<path d="M0 47.961V3H75.7219V47.961H0Z" fill="white"/>
</mask>
<g mask="url(#mask17_11677_12704)">
<path d="M40.8516 6.67627C41.1504 7.50449 41.3275 8.37109 41.3775 9.24941H62.8626V6.67627H40.8516Z" fill="#0095AE"/>
</g>
<mask id="mask18_11677_12704" style="mask-type:luminance" maskUnits="userSpaceOnUse" x="0" y="3" width="76" height="45">
<path d="M0 47.961V3H75.7219V47.961H0Z" fill="white"/>
</mask>
<g mask="url(#mask18_11677_12704)">
<path d="M34.5252 10.353H13.04V12.9262H35.0498C34.7514 12.0979 34.5747 11.2313 34.5252 10.353Z" fill="#127D97"/>
</g>
<mask id="mask19_11677_12704" style="mask-type:luminance" maskUnits="userSpaceOnUse" x="0" y="3" width="76" height="45">
<path d="M0 47.961V3H75.7219V47.961H0Z" fill="white"/>
</mask>
<g mask="url(#mask19_11677_12704)">
<path d="M41.3781 10.353C41.328 11.2313 41.151 12.0979 40.8525 12.9262H62.8636V10.353H41.3781Z" fill="#127D97"/>
</g>
<mask id="mask20_11677_12704" style="mask-type:luminance" maskUnits="userSpaceOnUse" x="0" y="3" width="76" height="45">
<path d="M0 47.961V3H75.7219V47.961H0Z" fill="white"/>
</mask>
<g mask="url(#mask20_11677_12704)">
<path d="M35.5421 14.0293H13.04V16.6024H37.7111C36.8319 15.9429 36.0905 15.063 35.5421 14.0293Z" fill="#1E6685"/>
</g>
<mask id="mask21_11677_12704" style="mask-type:luminance" maskUnits="userSpaceOnUse" x="0" y="3" width="76" height="45">
<path d="M0 47.961V3H75.7219V47.961H0Z" fill="white"/>
</mask>
<g mask="url(#mask21_11677_12704)">
<path d="M40.3603 14.0293C39.8119 15.063 39.0692 15.9429 38.1904 16.6024H62.8637V14.0293H40.3603Z" fill="#1E6685"/>
</g>
<mask id="mask22_11677_12704" style="mask-type:luminance" maskUnits="userSpaceOnUse" x="0" y="3" width="76" height="45">
<path d="M0 47.961V3H75.7219V47.961H0Z" fill="white"/>
</mask>
<g mask="url(#mask22_11677_12704)">
<path d="M0.930136 45.3763H1.39736C1.45436 45.3763 1.5118 45.402 1.5688 45.4521C1.62623 45.5027 1.65516 45.5974 1.65516 45.7363C1.65516 45.8717 1.63011 45.9655 1.58089 46.0178C1.53166 46.0697 1.47855 46.0958 1.42111 46.0958H0.930136V45.3763ZM0.930136 47.9323V46.9007H1.48286C1.64868 46.9007 1.80068 46.8681 1.93886 46.8038C2.07705 46.7391 2.1945 46.6521 2.29166 46.5433C2.38839 46.4344 2.46439 46.3097 2.51836 46.1695C2.57234 46.029 2.59955 45.8845 2.59955 45.7363C2.59955 45.5944 2.57061 45.453 2.51318 45.3124C2.4578 45.1748 2.37793 45.0482 2.27741 44.9387C2.17541 44.8284 2.05319 44.7383 1.91727 44.6734C1.77461 44.605 1.61797 44.5703 1.45955 44.5718H0V47.9323H0.930136Z" fill="#084763"/>
</g>
<mask id="mask23_11677_12704" style="mask-type:luminance" maskUnits="userSpaceOnUse" x="0" y="3" width="76" height="45">
<path d="M0 47.961V3H75.7219V47.961H0Z" fill="white"/>
</mask>
<g mask="url(#mask23_11677_12704)">
<path d="M5.37991 46.6594L5.69427 45.618L5.99482 46.6594H5.37991ZM4.0918 47.9323H5.04093L5.2413 47.2744H6.1425L6.34762 47.9323H7.292L6.11875 44.5718H5.2698L4.0918 47.9323Z" fill="#084763"/>
</g>
<mask id="mask24_11677_12704" style="mask-type:luminance" maskUnits="userSpaceOnUse" x="0" y="3" width="76" height="45">
<path d="M0 47.961V3H75.7219V47.961H0Z" fill="white"/>
</mask>
<g mask="url(#mask24_11677_12704)">
<path d="M10.1729 45.3763H10.736C10.793 45.3763 10.8504 45.4071 10.9074 45.4688C10.9648 45.5301 10.9933 45.6193 10.9933 45.7363C10.9933 45.8498 10.9687 45.9381 10.9195 46.0011C10.8703 46.0645 10.8167 46.0958 10.7597 46.0958H10.1729V45.3763ZM10.1729 47.9323V46.9007H10.5213L11.1173 47.9323H12.1666L11.4511 46.6971C11.6039 46.59 11.7231 46.4515 11.809 46.2827C11.8945 46.1143 11.9377 45.9317 11.9377 45.7363C11.9377 45.5944 11.9092 45.453 11.8518 45.3124C11.7963 45.1748 11.7163 45.0482 11.6156 44.9387C11.5137 44.8284 11.3916 44.7384 11.2559 44.6734C11.1132 44.605 10.9566 44.5703 10.7981 44.5718H9.24316V47.9323H10.1729Z" fill="#084763"/>
</g>
<mask id="mask25_11677_12704" style="mask-type:luminance" maskUnits="userSpaceOnUse" x="0" y="3" width="76" height="45">
<path d="M0 47.961V3H75.7219V47.961H0Z" fill="white"/>
</mask>
<g mask="url(#mask25_11677_12704)">
<path d="M16.7215 45.3767H15.7486V47.9327H14.8185V45.3767H13.8408V44.5714H16.721L16.7215 45.3767Z" fill="#084763"/>
</g>
<mask id="mask26_11677_12704" style="mask-type:luminance" maskUnits="userSpaceOnUse" x="0" y="3" width="76" height="45">
<path d="M0 47.961V3H75.7219V47.961H0Z" fill="white"/>
</mask>
<g mask="url(#mask26_11677_12704)">
<path d="M19.4346 46.257C19.4346 46.3706 19.4506 46.4799 19.4821 46.5857C19.5141 46.6916 19.562 46.7855 19.6255 46.8677C19.689 46.9496 19.7693 47.016 19.8664 47.0662C19.9736 47.119 20.0922 47.1451 20.2119 47.142C20.3458 47.142 20.4619 47.1163 20.5604 47.064C20.6551 47.0151 20.7373 46.9455 20.8009 46.8605C20.8631 46.7769 20.9088 46.6813 20.9395 46.5742C20.9697 46.467 20.9848 46.3577 20.9848 46.2476C20.9852 46.1362 20.9692 46.0253 20.9373 45.9184C20.9076 45.8168 20.8582 45.7219 20.7918 45.639C20.7255 45.5578 20.6425 45.4916 20.5483 45.4449C20.442 45.3942 20.3251 45.3692 20.2071 45.372C20.0737 45.372 19.9584 45.3969 19.8617 45.4474C19.7645 45.498 19.6846 45.5649 19.6207 45.6489C19.5564 45.7339 19.5086 45.8301 19.48 45.9326C19.4497 46.0385 19.4346 46.1469 19.4346 46.257ZM20.2028 47.961C19.961 47.9645 19.7214 47.9144 19.5016 47.8145C19.0958 47.6285 18.7781 47.2943 18.6146 46.8814C18.5325 46.6799 18.4902 46.4646 18.4902 46.2472C18.4902 46.0265 18.5334 45.8134 18.6193 45.6086C18.7048 45.4033 18.8249 45.2229 18.9795 45.0664C19.1336 44.9104 19.3163 44.7857 19.5279 44.6923C19.7467 44.5979 19.9832 44.5504 20.2218 44.553C20.4792 44.553 20.7128 44.6019 20.9227 44.6996C21.3295 44.8856 21.647 45.2219 21.8075 45.6369C21.8886 45.8417 21.9292 46.0517 21.9292 46.2665C21.9292 46.4872 21.8861 46.6993 21.8006 46.9029C21.7166 47.1037 21.5951 47.2869 21.4426 47.4429C21.2863 47.6015 21.1008 47.7291 20.8963 47.8187C20.6847 47.9135 20.4537 47.961 20.2028 47.961Z" fill="#084763"/>
</g>
<mask id="mask27_11677_12704" style="mask-type:luminance" maskUnits="userSpaceOnUse" x="0" y="3" width="76" height="45">
<path d="M0 47.961V3H75.7219V47.961H0Z" fill="white"/>
</mask>
<g mask="url(#mask27_11677_12704)">
<path d="M25.4728 47.142C25.5808 47.142 25.6732 47.1184 25.7492 47.0708C25.8256 47.0237 25.8873 46.9616 25.9348 46.884C25.9832 46.8068 26.0178 46.7177 26.0402 46.6166C26.0622 46.5158 26.0735 46.41 26.0735 46.2994V44.5714H27.0036V46.2986C27.0036 46.5326 26.9734 46.7511 26.9129 46.9543C26.8525 47.1583 26.7588 47.334 26.6314 47.4823C26.5003 47.6336 26.3365 47.7534 26.1521 47.8328C25.9599 47.9181 25.7332 47.9606 25.4728 47.9606C25.2025 47.9606 24.971 47.9156 24.7789 47.8256C24.5949 47.7422 24.4325 47.6183 24.3039 47.4634C24.1778 47.3079 24.0854 47.1283 24.0323 46.9358C23.974 46.7285 23.9451 46.5142 23.9463 46.299V44.5714H24.8765V46.2986C24.8765 46.4096 24.8877 46.5163 24.9097 46.6187C24.9322 46.7216 24.9671 46.8111 25.0146 46.8887C25.0621 46.9658 25.1239 47.0271 25.1982 47.073C25.2729 47.1188 25.3644 47.142 25.4728 47.142Z" fill="#084763"/>
</g>
<mask id="mask28_11677_12704" style="mask-type:luminance" maskUnits="userSpaceOnUse" x="0" y="3" width="76" height="45">
<path d="M0 47.961V3H75.7219V47.961H0Z" fill="white"/>
</mask>
<g mask="url(#mask28_11677_12704)">
<path d="M31.8441 45.3767H30.8712V47.9327H29.9419V45.3767H28.9639V44.5714H31.8445L31.8441 45.3767Z" fill="#084763"/>
</g>
<mask id="mask29_11677_12704" style="mask-type:luminance" maskUnits="userSpaceOnUse" x="0" y="3" width="76" height="45">
<path d="M0 47.961V3H75.7219V47.961H0Z" fill="white"/>
</mask>
<g mask="url(#mask29_11677_12704)">
<path d="M38.8749 47.1278V47.9327H36.4619V44.5714H38.8322V45.3763H37.3916V45.8494H38.6223V46.5973H37.3916V47.1274L38.8749 47.1278Z" fill="#084763"/>
</g>
<mask id="mask30_11677_12704" style="mask-type:luminance" maskUnits="userSpaceOnUse" x="0" y="3" width="76" height="45">
<path d="M0 47.961V3H75.7219V47.961H0Z" fill="white"/>
</mask>
<g mask="url(#mask30_11677_12704)">
<path d="M41.9077 46.2806V47.9327H40.9775V44.5714H41.7026L43.0619 46.2801V44.5714H43.9916V47.9323H43.2524L41.9077 46.2806Z" fill="#084763"/>
</g>
<mask id="mask31_11677_12704" style="mask-type:luminance" maskUnits="userSpaceOnUse" x="0" y="3" width="76" height="45">
<path d="M0 47.961V3H75.7219V47.961H0Z" fill="white"/>
</mask>
<g mask="url(#mask31_11677_12704)">
<path d="M48.9854 47.9327V44.5714H51.3081V45.3758H49.9155V45.9347H51.0503V46.6826H49.9155V47.9323L48.9854 47.9327Z" fill="#084763"/>
</g>
<mask id="mask32_11677_12704" style="mask-type:luminance" maskUnits="userSpaceOnUse" x="0" y="3" width="76" height="45">
<path d="M0 47.961V3H75.7219V47.961H0Z" fill="white"/>
</mask>
<g mask="url(#mask32_11677_12704)">
<path d="M54.2695 45.3763H54.8322C54.8896 45.3763 54.9466 45.4071 55.0041 45.4688C55.0615 45.5301 55.09 45.6193 55.09 45.7363C55.09 45.8498 55.065 45.9381 55.0162 46.0011C54.9665 46.0645 54.9134 46.0958 54.8564 46.0958H54.2695V45.3763ZM54.2695 47.9323V46.9007H54.6176L55.2139 47.9323H56.2633L55.5477 46.6971C55.7006 46.59 55.8198 46.4515 55.9053 46.2827C55.9912 46.1143 56.0344 45.9317 56.0344 45.7363C56.0344 45.5944 56.0055 45.453 55.948 45.3124C55.8926 45.1748 55.8127 45.0483 55.7123 44.9387C55.6103 44.8284 55.4881 44.7383 55.3521 44.6734C55.2095 44.605 55.0528 44.5702 54.8944 44.5718H53.3398V47.9323H54.2695Z" fill="#084763"/>
</g>
<mask id="mask33_11677_12704" style="mask-type:luminance" maskUnits="userSpaceOnUse" x="0" y="3" width="76" height="45">
<path d="M0 47.961V3H75.7219V47.961H0Z" fill="white"/>
</mask>
<g mask="url(#mask33_11677_12704)">
<path d="M59.2154 46.6594L59.5306 45.618L59.8308 46.6594H59.2154ZM57.9277 47.9323H58.8769L59.0772 47.2744H59.9784L60.1836 47.9323H61.1279L59.9547 44.5718H59.1057L57.9277 47.9323Z" fill="#084763"/>
</g>
<mask id="mask34_11677_12704" style="mask-type:luminance" maskUnits="userSpaceOnUse" x="0" y="3" width="76" height="45">
<path d="M0 47.961V3H75.7219V47.961H0Z" fill="white"/>
</mask>
<g mask="url(#mask34_11677_12704)">
<path d="M64.0088 46.2806V47.9327H63.0791V44.5714H63.8041L65.1635 46.2801V44.5714H66.0932V47.9323H65.3539L64.0088 46.2806Z" fill="#084763"/>
</g>
<mask id="mask35_11677_12704" style="mask-type:luminance" maskUnits="userSpaceOnUse" x="0" y="3" width="76" height="45">
<path d="M0 47.961V3H75.7219V47.961H0Z" fill="white"/>
</mask>
<g mask="url(#mask35_11677_12704)">
<path d="M68.1586 46.2236C68.1586 46.0187 68.1975 45.8164 68.2752 45.6176C68.353 45.4191 68.4665 45.2408 68.6164 45.0831C68.7709 44.9216 68.9555 44.7913 69.16 44.6996C69.3729 44.6018 69.616 44.553 69.8898 44.553C70.2171 44.553 70.5008 44.6198 70.7409 44.754C70.981 44.8881 71.1598 45.0655 71.2772 45.2867L70.5669 45.7881C70.5139 45.6431 70.4061 45.5243 70.2663 45.4568C70.2038 45.4257 70.1373 45.4033 70.0686 45.3904C70.0032 45.3782 69.9369 45.3718 69.8704 45.3715C69.7369 45.3715 69.6216 45.3977 69.5249 45.45C69.4277 45.5018 69.3479 45.57 69.2861 45.6536C69.2232 45.7391 69.1764 45.8352 69.1479 45.9373C69.1177 46.0431 69.1026 46.1481 69.1026 46.2523C69.1026 46.3688 69.1199 46.4811 69.1553 46.5883C69.1898 46.6954 69.2408 46.7901 69.3077 46.872C69.3746 46.9543 69.4562 47.0198 69.5534 47.0687C69.6501 47.1176 69.759 47.142 69.8799 47.142C69.9438 47.142 70.0085 47.1351 70.0755 47.1205C70.1424 47.1064 70.2067 47.0828 70.2689 47.0498C70.3307 47.0164 70.3864 46.974 70.4356 46.9221C70.4848 46.8698 70.5241 46.806 70.5522 46.7301L71.3109 47.1801C71.2583 47.3056 71.1794 47.4185 71.0795 47.5114C70.9758 47.6091 70.8584 47.6914 70.7267 47.7574C70.5918 47.8247 70.4493 47.8755 70.3022 47.9087C70.151 47.9434 70.0042 47.961 69.8609 47.961C69.6227 47.9638 69.387 47.9128 69.1717 47.8118C68.968 47.7159 68.785 47.5817 68.6328 47.4167C68.4823 47.2535 68.3634 47.0642 68.2821 46.8583C68.2008 46.6565 68.1587 46.4413 68.1582 46.224" fill="#084763"/>
</g>
<mask id="mask36_11677_12704" style="mask-type:luminance" maskUnits="userSpaceOnUse" x="0" y="3" width="76" height="45">
<path d="M0 47.961V3H75.7219V47.961H0Z" fill="white"/>
</mask>
<g mask="url(#mask36_11677_12704)">
<path d="M75.7216 47.1278V47.9327H73.3086V44.5714H75.6788V45.3763H74.2383V45.8494H75.469V46.5973H74.2383V47.1274L75.7216 47.1278Z" fill="#084763"/>
</g>
</g>
<defs>
<clipPath id="clip0_11677_12704">
<rect width="76" height="48" fill="white"/>
</clipPath>
</defs>
</svg>
